<mxfile host="app.diagrams.net" modified="2022-05-04T02:45:16.146Z" agent="5.0 (Windows NT 10.0; Win64; x64) AppleWebKit/537.36 (KHTML, like Gecko) Chrome/100.0.4896.127 Safari/537.36" etag="9WjR1uujSXBq4te_bgw3" version="17.5.0" type="github">
  <diagram id="FlnOLisMec5G6e_WZhVy" name="第 1 页">
    <mxGraphModel dx="869" dy="447" grid="1" gridSize="10" guides="1" tooltips="1" connect="1" arrows="1" fold="1" page="1" pageScale="1" pageWidth="827" pageHeight="1169" math="0" shadow="0">
      <root>
        <mxCell id="0" />
        <mxCell id="1" parent="0" />
        <mxCell id="w6RZKW0HgrWe5gDU7XOU-5" style="edgeStyle=orthogonalEdgeStyle;rounded=0;orthogonalLoop=1;jettySize=auto;html=1;exitX=0.5;exitY=1;exitDx=0;exitDy=0;entryX=0.5;entryY=0;entryDx=0;entryDy=0;" edge="1" parent="1" source="w6RZKW0HgrWe5gDU7XOU-1" target="w6RZKW0HgrWe5gDU7XOU-3">
          <mxGeometry relative="1" as="geometry" />
        </mxCell>
        <mxCell id="w6RZKW0HgrWe5gDU7XOU-1" value="7x7 conv,64, /2" style="rounded=0;whiteSpace=wrap;html=1;fontFamily=Helvetica;rotation=-90;fillColor=#f8cecc;strokeColor=#b85450;" vertex="1" parent="1">
          <mxGeometry x="62.5" y="157.5" width="127.5" height="22.5" as="geometry" />
        </mxCell>
        <mxCell id="w6RZKW0HgrWe5gDU7XOU-103" style="edgeStyle=orthogonalEdgeStyle;curved=0;rounded=1;sketch=0;orthogonalLoop=1;jettySize=auto;html=1;exitX=0.5;exitY=1;exitDx=0;exitDy=0;entryX=0.5;entryY=0;entryDx=0;entryDy=0;" edge="1" parent="1" source="w6RZKW0HgrWe5gDU7XOU-2" target="w6RZKW0HgrWe5gDU7XOU-1">
          <mxGeometry relative="1" as="geometry" />
        </mxCell>
        <mxCell id="w6RZKW0HgrWe5gDU7XOU-2" value="Image&lt;br&gt;" style="text;html=1;strokeColor=none;fillColor=none;align=center;verticalAlign=middle;whiteSpace=wrap;rounded=0;fontFamily=Helvetica;rotation=-90;" vertex="1" parent="1">
          <mxGeometry x="20" y="153.75" width="60" height="30" as="geometry" />
        </mxCell>
        <mxCell id="w6RZKW0HgrWe5gDU7XOU-14" style="edgeStyle=orthogonalEdgeStyle;rounded=0;orthogonalLoop=1;jettySize=auto;html=1;exitX=0.5;exitY=1;exitDx=0;exitDy=0;entryX=0.5;entryY=0;entryDx=0;entryDy=0;" edge="1" parent="1" source="w6RZKW0HgrWe5gDU7XOU-3" target="w6RZKW0HgrWe5gDU7XOU-8">
          <mxGeometry relative="1" as="geometry" />
        </mxCell>
        <mxCell id="w6RZKW0HgrWe5gDU7XOU-60" value="" style="edgeStyle=orthogonalEdgeStyle;curved=0;rounded=1;sketch=0;orthogonalLoop=1;jettySize=auto;html=1;" edge="1" parent="1" source="w6RZKW0HgrWe5gDU7XOU-3" target="w6RZKW0HgrWe5gDU7XOU-10">
          <mxGeometry relative="1" as="geometry">
            <Array as="points">
              <mxPoint x="330" y="169" />
              <mxPoint x="330" y="169" />
            </Array>
          </mxGeometry>
        </mxCell>
        <mxCell id="w6RZKW0HgrWe5gDU7XOU-69" value="" style="edgeStyle=orthogonalEdgeStyle;curved=0;rounded=1;sketch=0;orthogonalLoop=1;jettySize=auto;html=1;" edge="1" parent="1" source="w6RZKW0HgrWe5gDU7XOU-3" target="w6RZKW0HgrWe5gDU7XOU-10">
          <mxGeometry relative="1" as="geometry" />
        </mxCell>
        <mxCell id="w6RZKW0HgrWe5gDU7XOU-3" value="Max Pool,/2" style="text;html=1;strokeColor=none;fillColor=none;align=center;verticalAlign=middle;whiteSpace=wrap;rounded=0;fontFamily=Helvetica;rotation=-90;" vertex="1" parent="1">
          <mxGeometry x="144" y="153.75" width="80" height="30" as="geometry" />
        </mxCell>
        <mxCell id="w6RZKW0HgrWe5gDU7XOU-7" style="edgeStyle=orthogonalEdgeStyle;rounded=0;orthogonalLoop=1;jettySize=auto;html=1;exitX=0.5;exitY=1;exitDx=0;exitDy=0;entryX=0.5;entryY=0;entryDx=0;entryDy=0;fontFamily=Helvetica;" edge="1" parent="1" source="w6RZKW0HgrWe5gDU7XOU-8" target="w6RZKW0HgrWe5gDU7XOU-10">
          <mxGeometry relative="1" as="geometry" />
        </mxCell>
        <mxCell id="w6RZKW0HgrWe5gDU7XOU-8" value="3x3 conv,64" style="rounded=0;whiteSpace=wrap;html=1;fontFamily=Helvetica;rotation=-90;fillColor=#ffe6cc;strokeColor=#d79b00;" vertex="1" parent="1">
          <mxGeometry x="178" y="157.5" width="127.5" height="22.5" as="geometry" />
        </mxCell>
        <mxCell id="w6RZKW0HgrWe5gDU7XOU-9" style="edgeStyle=orthogonalEdgeStyle;rounded=0;orthogonalLoop=1;jettySize=auto;html=1;exitX=0.5;exitY=1;exitDx=0;exitDy=0;entryX=0.5;entryY=0;entryDx=0;entryDy=0;fontFamily=Helvetica;" edge="1" parent="1" source="w6RZKW0HgrWe5gDU7XOU-10" target="w6RZKW0HgrWe5gDU7XOU-12">
          <mxGeometry relative="1" as="geometry" />
        </mxCell>
        <mxCell id="w6RZKW0HgrWe5gDU7XOU-11" style="edgeStyle=orthogonalEdgeStyle;rounded=0;orthogonalLoop=1;jettySize=auto;html=1;exitX=0.5;exitY=1;exitDx=0;exitDy=0;entryX=0.5;entryY=0;entryDx=0;entryDy=0;fontFamily=Helvetica;" edge="1" parent="1" source="w6RZKW0HgrWe5gDU7XOU-12" target="w6RZKW0HgrWe5gDU7XOU-13">
          <mxGeometry relative="1" as="geometry" />
        </mxCell>
        <mxCell id="w6RZKW0HgrWe5gDU7XOU-12" value="3x3 conv,64" style="rounded=0;whiteSpace=wrap;html=1;fontFamily=Helvetica;rotation=-90;fillColor=#ffe6cc;strokeColor=#d79b00;" vertex="1" parent="1">
          <mxGeometry x="293" y="157.5" width="127.5" height="22.5" as="geometry" />
        </mxCell>
        <mxCell id="w6RZKW0HgrWe5gDU7XOU-22" style="edgeStyle=orthogonalEdgeStyle;rounded=0;orthogonalLoop=1;jettySize=auto;html=1;exitX=0.5;exitY=1;exitDx=0;exitDy=0;entryX=0.5;entryY=0;entryDx=0;entryDy=0;" edge="1" parent="1" source="w6RZKW0HgrWe5gDU7XOU-13" target="w6RZKW0HgrWe5gDU7XOU-16">
          <mxGeometry relative="1" as="geometry" />
        </mxCell>
        <mxCell id="w6RZKW0HgrWe5gDU7XOU-13" value="3x3 conv,64" style="rounded=0;whiteSpace=wrap;html=1;fontFamily=Helvetica;rotation=-90;fillColor=#ffe6cc;strokeColor=#d79b00;" vertex="1" parent="1">
          <mxGeometry x="350" y="157.5" width="127.5" height="22.5" as="geometry" />
        </mxCell>
        <mxCell id="w6RZKW0HgrWe5gDU7XOU-15" style="edgeStyle=orthogonalEdgeStyle;rounded=0;orthogonalLoop=1;jettySize=auto;html=1;exitX=0.5;exitY=1;exitDx=0;exitDy=0;entryX=0.5;entryY=0;entryDx=0;entryDy=0;fontFamily=Helvetica;" edge="1" parent="1" source="w6RZKW0HgrWe5gDU7XOU-16" target="w6RZKW0HgrWe5gDU7XOU-18">
          <mxGeometry relative="1" as="geometry" />
        </mxCell>
        <mxCell id="w6RZKW0HgrWe5gDU7XOU-16" value="3x3 conv,128, /2" style="rounded=0;whiteSpace=wrap;html=1;fontFamily=Helvetica;rotation=-90;fillColor=#d5e8d4;strokeColor=#82b366;" vertex="1" parent="1">
          <mxGeometry x="408" y="157.5" width="127.5" height="22.5" as="geometry" />
        </mxCell>
        <mxCell id="w6RZKW0HgrWe5gDU7XOU-17" style="edgeStyle=orthogonalEdgeStyle;rounded=0;orthogonalLoop=1;jettySize=auto;html=1;exitX=0.5;exitY=1;exitDx=0;exitDy=0;entryX=0.5;entryY=0;entryDx=0;entryDy=0;fontFamily=Helvetica;" edge="1" parent="1" source="w6RZKW0HgrWe5gDU7XOU-18" target="w6RZKW0HgrWe5gDU7XOU-20">
          <mxGeometry relative="1" as="geometry" />
        </mxCell>
        <mxCell id="w6RZKW0HgrWe5gDU7XOU-18" value="3x3 conv,128" style="rounded=0;whiteSpace=wrap;html=1;fontFamily=Helvetica;rotation=-90;fillColor=#d5e8d4;strokeColor=#82b366;" vertex="1" parent="1">
          <mxGeometry x="465" y="157.5" width="127.5" height="22.5" as="geometry" />
        </mxCell>
        <mxCell id="w6RZKW0HgrWe5gDU7XOU-19" style="edgeStyle=orthogonalEdgeStyle;rounded=0;orthogonalLoop=1;jettySize=auto;html=1;exitX=0.5;exitY=1;exitDx=0;exitDy=0;entryX=0.5;entryY=0;entryDx=0;entryDy=0;fontFamily=Helvetica;" edge="1" parent="1" source="w6RZKW0HgrWe5gDU7XOU-20" target="w6RZKW0HgrWe5gDU7XOU-21">
          <mxGeometry relative="1" as="geometry" />
        </mxCell>
        <mxCell id="w6RZKW0HgrWe5gDU7XOU-20" value="3x3 conv,128" style="rounded=0;whiteSpace=wrap;html=1;fontFamily=Helvetica;rotation=-90;fillColor=#d5e8d4;strokeColor=#82b366;" vertex="1" parent="1">
          <mxGeometry x="523" y="157.5" width="127.5" height="22.5" as="geometry" />
        </mxCell>
        <mxCell id="w6RZKW0HgrWe5gDU7XOU-21" value="3x3 conv,128" style="rounded=0;whiteSpace=wrap;html=1;fontFamily=Helvetica;rotation=-90;fillColor=#d5e8d4;strokeColor=#82b366;" vertex="1" parent="1">
          <mxGeometry x="580" y="157.5" width="127.5" height="22.5" as="geometry" />
        </mxCell>
        <mxCell id="w6RZKW0HgrWe5gDU7XOU-57" style="edgeStyle=orthogonalEdgeStyle;curved=1;rounded=0;orthogonalLoop=1;jettySize=auto;html=1;exitX=0.5;exitY=1;exitDx=0;exitDy=0;entryX=0.5;entryY=0;entryDx=0;entryDy=0;" edge="1" parent="1" source="w6RZKW0HgrWe5gDU7XOU-24" target="w6RZKW0HgrWe5gDU7XOU-26">
          <mxGeometry relative="1" as="geometry" />
        </mxCell>
        <mxCell id="w6RZKW0HgrWe5gDU7XOU-24" value="3x3 conv, 256, /2" style="rounded=0;whiteSpace=wrap;html=1;fontFamily=Helvetica;rotation=-90;fillColor=#dae8fc;strokeColor=#6c8ebf;" vertex="1" parent="1">
          <mxGeometry x="62.5" y="360" width="127.5" height="22.5" as="geometry" />
        </mxCell>
        <mxCell id="w6RZKW0HgrWe5gDU7XOU-25" style="edgeStyle=orthogonalEdgeStyle;rounded=0;orthogonalLoop=1;jettySize=auto;html=1;exitX=0.5;exitY=1;exitDx=0;exitDy=0;entryX=0.5;entryY=0;entryDx=0;entryDy=0;fontFamily=Helvetica;" edge="1" parent="1" source="w6RZKW0HgrWe5gDU7XOU-26" target="w6RZKW0HgrWe5gDU7XOU-28">
          <mxGeometry relative="1" as="geometry" />
        </mxCell>
        <mxCell id="w6RZKW0HgrWe5gDU7XOU-26" value="3x3 conv, 256" style="rounded=0;whiteSpace=wrap;html=1;fontFamily=Helvetica;rotation=-90;fillColor=#dae8fc;strokeColor=#6c8ebf;" vertex="1" parent="1">
          <mxGeometry x="121" y="360" width="127.5" height="22.5" as="geometry" />
        </mxCell>
        <mxCell id="w6RZKW0HgrWe5gDU7XOU-27" style="edgeStyle=orthogonalEdgeStyle;rounded=0;orthogonalLoop=1;jettySize=auto;html=1;exitX=0.5;exitY=1;exitDx=0;exitDy=0;entryX=0.5;entryY=0;entryDx=0;entryDy=0;fontFamily=Helvetica;" edge="1" parent="1" source="w6RZKW0HgrWe5gDU7XOU-28" target="w6RZKW0HgrWe5gDU7XOU-29">
          <mxGeometry relative="1" as="geometry" />
        </mxCell>
        <mxCell id="w6RZKW0HgrWe5gDU7XOU-28" value="3x3 conv, 256" style="rounded=0;whiteSpace=wrap;html=1;fontFamily=Helvetica;rotation=-90;fillColor=#dae8fc;strokeColor=#6c8ebf;" vertex="1" parent="1">
          <mxGeometry x="179" y="360" width="127.5" height="22.5" as="geometry" />
        </mxCell>
        <mxCell id="w6RZKW0HgrWe5gDU7XOU-55" style="edgeStyle=orthogonalEdgeStyle;curved=1;rounded=0;orthogonalLoop=1;jettySize=auto;html=1;exitX=0.5;exitY=1;exitDx=0;exitDy=0;entryX=0.5;entryY=0;entryDx=0;entryDy=0;" edge="1" parent="1" source="w6RZKW0HgrWe5gDU7XOU-29" target="w6RZKW0HgrWe5gDU7XOU-31">
          <mxGeometry relative="1" as="geometry" />
        </mxCell>
        <mxCell id="w6RZKW0HgrWe5gDU7XOU-29" value="3x3 conv, 256" style="rounded=0;whiteSpace=wrap;html=1;fontFamily=Helvetica;rotation=-90;fillColor=#dae8fc;strokeColor=#6c8ebf;" vertex="1" parent="1">
          <mxGeometry x="237" y="360" width="127.5" height="22.5" as="geometry" />
        </mxCell>
        <mxCell id="w6RZKW0HgrWe5gDU7XOU-30" style="edgeStyle=orthogonalEdgeStyle;rounded=0;orthogonalLoop=1;jettySize=auto;html=1;exitX=0.5;exitY=1;exitDx=0;exitDy=0;entryX=0.5;entryY=0;entryDx=0;entryDy=0;fontFamily=Helvetica;" edge="1" parent="1" source="w6RZKW0HgrWe5gDU7XOU-31" target="w6RZKW0HgrWe5gDU7XOU-33">
          <mxGeometry relative="1" as="geometry" />
        </mxCell>
        <mxCell id="w6RZKW0HgrWe5gDU7XOU-31" value="3x3 conv, 512, /2" style="rounded=0;whiteSpace=wrap;html=1;fontFamily=Helvetica;rotation=-90;fillColor=#e1d5e7;strokeColor=#9673a6;" vertex="1" parent="1">
          <mxGeometry x="295" y="360" width="127.5" height="22.5" as="geometry" />
        </mxCell>
        <mxCell id="w6RZKW0HgrWe5gDU7XOU-32" style="edgeStyle=orthogonalEdgeStyle;rounded=0;orthogonalLoop=1;jettySize=auto;html=1;exitX=0.5;exitY=1;exitDx=0;exitDy=0;entryX=0.5;entryY=0;entryDx=0;entryDy=0;fontFamily=Helvetica;" edge="1" parent="1" source="w6RZKW0HgrWe5gDU7XOU-33" target="w6RZKW0HgrWe5gDU7XOU-35">
          <mxGeometry relative="1" as="geometry" />
        </mxCell>
        <mxCell id="w6RZKW0HgrWe5gDU7XOU-33" value="3x3 conv, 512" style="rounded=0;whiteSpace=wrap;html=1;fontFamily=Helvetica;rotation=-90;fillColor=#e1d5e7;strokeColor=#9673a6;" vertex="1" parent="1">
          <mxGeometry x="353" y="360" width="127.5" height="22.5" as="geometry" />
        </mxCell>
        <mxCell id="w6RZKW0HgrWe5gDU7XOU-34" style="edgeStyle=orthogonalEdgeStyle;rounded=0;orthogonalLoop=1;jettySize=auto;html=1;exitX=0.5;exitY=1;exitDx=0;exitDy=0;entryX=0.5;entryY=0;entryDx=0;entryDy=0;fontFamily=Helvetica;" edge="1" parent="1" source="w6RZKW0HgrWe5gDU7XOU-35" target="w6RZKW0HgrWe5gDU7XOU-36">
          <mxGeometry relative="1" as="geometry" />
        </mxCell>
        <mxCell id="w6RZKW0HgrWe5gDU7XOU-35" value="3x3 conv, 512" style="rounded=0;whiteSpace=wrap;html=1;fontFamily=Helvetica;rotation=-90;fillColor=#e1d5e7;strokeColor=#9673a6;" vertex="1" parent="1">
          <mxGeometry x="411" y="360" width="127.5" height="22.5" as="geometry" />
        </mxCell>
        <mxCell id="w6RZKW0HgrWe5gDU7XOU-39" style="edgeStyle=orthogonalEdgeStyle;rounded=0;orthogonalLoop=1;jettySize=auto;html=1;exitX=0.5;exitY=1;exitDx=0;exitDy=0;" edge="1" parent="1" source="w6RZKW0HgrWe5gDU7XOU-36" target="w6RZKW0HgrWe5gDU7XOU-37">
          <mxGeometry relative="1" as="geometry" />
        </mxCell>
        <mxCell id="w6RZKW0HgrWe5gDU7XOU-36" value="3x3 conv, 512" style="rounded=0;whiteSpace=wrap;html=1;fontFamily=Helvetica;rotation=-90;fillColor=#e1d5e7;strokeColor=#9673a6;" vertex="1" parent="1">
          <mxGeometry x="469" y="360" width="127.5" height="22.5" as="geometry" />
        </mxCell>
        <mxCell id="w6RZKW0HgrWe5gDU7XOU-40" style="edgeStyle=orthogonalEdgeStyle;rounded=0;orthogonalLoop=1;jettySize=auto;html=1;exitX=0.5;exitY=1;exitDx=0;exitDy=0;entryX=0.5;entryY=0;entryDx=0;entryDy=0;" edge="1" parent="1" source="w6RZKW0HgrWe5gDU7XOU-37" target="w6RZKW0HgrWe5gDU7XOU-38">
          <mxGeometry relative="1" as="geometry" />
        </mxCell>
        <mxCell id="w6RZKW0HgrWe5gDU7XOU-37" value="Avg pool" style="text;html=1;strokeColor=none;fillColor=none;align=center;verticalAlign=middle;whiteSpace=wrap;rounded=0;fontFamily=Helvetica;rotation=-90;" vertex="1" parent="1">
          <mxGeometry x="561" y="356.25" width="60" height="30" as="geometry" />
        </mxCell>
        <mxCell id="w6RZKW0HgrWe5gDU7XOU-38" value="FC (512,1000)" style="rounded=0;whiteSpace=wrap;html=1;fontFamily=Helvetica;rotation=-90;" vertex="1" parent="1">
          <mxGeometry x="590" y="361.25" width="117.5" height="20" as="geometry" />
        </mxCell>
        <mxCell id="w6RZKW0HgrWe5gDU7XOU-10" value="3x3 conv,64" style="rounded=0;whiteSpace=wrap;html=1;fontFamily=Helvetica;rotation=-90;fillColor=#ffe6cc;strokeColor=#d79b00;" vertex="1" parent="1">
          <mxGeometry x="235" y="157.5" width="127.5" height="22.5" as="geometry" />
        </mxCell>
        <mxCell id="w6RZKW0HgrWe5gDU7XOU-80" value="" style="group" vertex="1" connectable="0" parent="1">
          <mxGeometry x="210" y="90" width="110" height="80" as="geometry" />
        </mxCell>
        <mxCell id="w6RZKW0HgrWe5gDU7XOU-77" value="" style="endArrow=none;html=1;rounded=1;sketch=0;curved=0;" edge="1" parent="w6RZKW0HgrWe5gDU7XOU-80">
          <mxGeometry width="50" height="50" relative="1" as="geometry">
            <mxPoint y="80" as="sourcePoint" />
            <mxPoint as="targetPoint" />
          </mxGeometry>
        </mxCell>
        <mxCell id="w6RZKW0HgrWe5gDU7XOU-78" value="" style="endArrow=none;html=1;rounded=1;sketch=0;curved=0;" edge="1" parent="w6RZKW0HgrWe5gDU7XOU-80">
          <mxGeometry width="50" height="50" relative="1" as="geometry">
            <mxPoint as="sourcePoint" />
            <mxPoint x="110" as="targetPoint" />
          </mxGeometry>
        </mxCell>
        <mxCell id="w6RZKW0HgrWe5gDU7XOU-79" value="" style="endArrow=classic;html=1;rounded=1;sketch=0;curved=0;" edge="1" parent="w6RZKW0HgrWe5gDU7XOU-80">
          <mxGeometry width="50" height="50" relative="1" as="geometry">
            <mxPoint x="110" as="sourcePoint" />
            <mxPoint x="110" y="80" as="targetPoint" />
          </mxGeometry>
        </mxCell>
        <mxCell id="w6RZKW0HgrWe5gDU7XOU-81" value="" style="group" vertex="1" connectable="0" parent="1">
          <mxGeometry x="330" y="90" width="110" height="80" as="geometry" />
        </mxCell>
        <mxCell id="w6RZKW0HgrWe5gDU7XOU-82" value="" style="endArrow=none;html=1;rounded=1;sketch=0;curved=0;" edge="1" parent="w6RZKW0HgrWe5gDU7XOU-81">
          <mxGeometry width="50" height="50" relative="1" as="geometry">
            <mxPoint y="80" as="sourcePoint" />
            <mxPoint as="targetPoint" />
          </mxGeometry>
        </mxCell>
        <mxCell id="w6RZKW0HgrWe5gDU7XOU-83" value="" style="endArrow=none;html=1;rounded=1;sketch=0;curved=0;" edge="1" parent="w6RZKW0HgrWe5gDU7XOU-81">
          <mxGeometry width="50" height="50" relative="1" as="geometry">
            <mxPoint as="sourcePoint" />
            <mxPoint x="110" as="targetPoint" />
          </mxGeometry>
        </mxCell>
        <mxCell id="w6RZKW0HgrWe5gDU7XOU-84" value="" style="endArrow=classic;html=1;rounded=1;sketch=0;curved=0;" edge="1" parent="w6RZKW0HgrWe5gDU7XOU-81">
          <mxGeometry width="50" height="50" relative="1" as="geometry">
            <mxPoint x="110" as="sourcePoint" />
            <mxPoint x="110" y="80" as="targetPoint" />
          </mxGeometry>
        </mxCell>
        <mxCell id="w6RZKW0HgrWe5gDU7XOU-98" value="" style="group" vertex="1" connectable="0" parent="1">
          <mxGeometry x="450" y="90" width="100" height="80" as="geometry" />
        </mxCell>
        <mxCell id="w6RZKW0HgrWe5gDU7XOU-95" value="" style="endArrow=none;dashed=1;html=1;rounded=1;sketch=0;curved=0;" edge="1" parent="w6RZKW0HgrWe5gDU7XOU-98">
          <mxGeometry width="50" height="50" relative="1" as="geometry">
            <mxPoint y="80" as="sourcePoint" />
            <mxPoint as="targetPoint" />
          </mxGeometry>
        </mxCell>
        <mxCell id="w6RZKW0HgrWe5gDU7XOU-96" value="" style="endArrow=none;dashed=1;html=1;rounded=1;sketch=0;curved=0;" edge="1" parent="w6RZKW0HgrWe5gDU7XOU-98">
          <mxGeometry width="50" height="50" relative="1" as="geometry">
            <mxPoint as="sourcePoint" />
            <mxPoint x="100" as="targetPoint" />
          </mxGeometry>
        </mxCell>
        <mxCell id="w6RZKW0HgrWe5gDU7XOU-97" value="" style="endArrow=classic;html=1;rounded=1;dashed=1;sketch=0;curved=0;" edge="1" parent="w6RZKW0HgrWe5gDU7XOU-98">
          <mxGeometry width="50" height="50" relative="1" as="geometry">
            <mxPoint x="100" as="sourcePoint" />
            <mxPoint x="100" y="80" as="targetPoint" />
          </mxGeometry>
        </mxCell>
        <mxCell id="w6RZKW0HgrWe5gDU7XOU-99" value="" style="group" vertex="1" connectable="0" parent="1">
          <mxGeometry x="561" y="90" width="110" height="80" as="geometry" />
        </mxCell>
        <mxCell id="w6RZKW0HgrWe5gDU7XOU-100" value="" style="endArrow=none;html=1;rounded=1;sketch=0;curved=0;" edge="1" parent="w6RZKW0HgrWe5gDU7XOU-99">
          <mxGeometry width="50" height="50" relative="1" as="geometry">
            <mxPoint y="80" as="sourcePoint" />
            <mxPoint as="targetPoint" />
          </mxGeometry>
        </mxCell>
        <mxCell id="w6RZKW0HgrWe5gDU7XOU-101" value="" style="endArrow=none;html=1;rounded=1;sketch=0;curved=0;" edge="1" parent="w6RZKW0HgrWe5gDU7XOU-99">
          <mxGeometry width="50" height="50" relative="1" as="geometry">
            <mxPoint as="sourcePoint" />
            <mxPoint x="110" as="targetPoint" />
          </mxGeometry>
        </mxCell>
        <mxCell id="w6RZKW0HgrWe5gDU7XOU-102" value="" style="endArrow=classic;html=1;rounded=1;sketch=0;curved=0;" edge="1" parent="w6RZKW0HgrWe5gDU7XOU-99">
          <mxGeometry width="50" height="50" relative="1" as="geometry">
            <mxPoint x="110" as="sourcePoint" />
            <mxPoint x="110" y="80" as="targetPoint" />
          </mxGeometry>
        </mxCell>
        <mxCell id="w6RZKW0HgrWe5gDU7XOU-104" value="" style="endArrow=classic;html=1;rounded=1;sketch=0;curved=0;entryX=0.5;entryY=0;entryDx=0;entryDy=0;" edge="1" parent="1">
          <mxGeometry width="50" height="50" relative="1" as="geometry">
            <mxPoint x="40" y="372" as="sourcePoint" />
            <mxPoint x="115" y="372.25" as="targetPoint" />
          </mxGeometry>
        </mxCell>
        <mxCell id="w6RZKW0HgrWe5gDU7XOU-105" value="" style="group" vertex="1" connectable="0" parent="1">
          <mxGeometry x="110" y="290" width="100" height="80" as="geometry" />
        </mxCell>
        <mxCell id="w6RZKW0HgrWe5gDU7XOU-106" value="" style="endArrow=none;dashed=1;html=1;rounded=1;sketch=0;curved=0;" edge="1" parent="w6RZKW0HgrWe5gDU7XOU-105">
          <mxGeometry width="50" height="50" relative="1" as="geometry">
            <mxPoint y="80" as="sourcePoint" />
            <mxPoint as="targetPoint" />
          </mxGeometry>
        </mxCell>
        <mxCell id="w6RZKW0HgrWe5gDU7XOU-107" value="" style="endArrow=none;dashed=1;html=1;rounded=1;sketch=0;curved=0;" edge="1" parent="w6RZKW0HgrWe5gDU7XOU-105">
          <mxGeometry width="50" height="50" relative="1" as="geometry">
            <mxPoint as="sourcePoint" />
            <mxPoint x="100" as="targetPoint" />
          </mxGeometry>
        </mxCell>
        <mxCell id="w6RZKW0HgrWe5gDU7XOU-108" value="" style="endArrow=classic;html=1;rounded=1;dashed=1;sketch=0;curved=0;" edge="1" parent="w6RZKW0HgrWe5gDU7XOU-105">
          <mxGeometry width="50" height="50" relative="1" as="geometry">
            <mxPoint x="100" as="sourcePoint" />
            <mxPoint x="100" y="80" as="targetPoint" />
          </mxGeometry>
        </mxCell>
        <mxCell id="w6RZKW0HgrWe5gDU7XOU-109" value="" style="group" vertex="1" connectable="0" parent="1">
          <mxGeometry x="220" y="290" width="110" height="80" as="geometry" />
        </mxCell>
        <mxCell id="w6RZKW0HgrWe5gDU7XOU-110" value="" style="endArrow=none;html=1;rounded=1;sketch=0;curved=0;" edge="1" parent="w6RZKW0HgrWe5gDU7XOU-109">
          <mxGeometry width="50" height="50" relative="1" as="geometry">
            <mxPoint y="80" as="sourcePoint" />
            <mxPoint as="targetPoint" />
          </mxGeometry>
        </mxCell>
        <mxCell id="w6RZKW0HgrWe5gDU7XOU-111" value="" style="endArrow=none;html=1;rounded=1;sketch=0;curved=0;" edge="1" parent="w6RZKW0HgrWe5gDU7XOU-109">
          <mxGeometry width="50" height="50" relative="1" as="geometry">
            <mxPoint as="sourcePoint" />
            <mxPoint x="110" as="targetPoint" />
          </mxGeometry>
        </mxCell>
        <mxCell id="w6RZKW0HgrWe5gDU7XOU-112" value="" style="endArrow=classic;html=1;rounded=1;sketch=0;curved=0;" edge="1" parent="w6RZKW0HgrWe5gDU7XOU-109">
          <mxGeometry width="50" height="50" relative="1" as="geometry">
            <mxPoint x="110" as="sourcePoint" />
            <mxPoint x="110" y="80" as="targetPoint" />
          </mxGeometry>
        </mxCell>
        <mxCell id="w6RZKW0HgrWe5gDU7XOU-113" value="" style="group" vertex="1" connectable="0" parent="1">
          <mxGeometry x="335" y="290" width="100" height="80" as="geometry" />
        </mxCell>
        <mxCell id="w6RZKW0HgrWe5gDU7XOU-114" value="" style="endArrow=none;dashed=1;html=1;rounded=1;sketch=0;curved=0;" edge="1" parent="w6RZKW0HgrWe5gDU7XOU-113">
          <mxGeometry width="50" height="50" relative="1" as="geometry">
            <mxPoint y="80" as="sourcePoint" />
            <mxPoint as="targetPoint" />
          </mxGeometry>
        </mxCell>
        <mxCell id="w6RZKW0HgrWe5gDU7XOU-115" value="" style="endArrow=none;dashed=1;html=1;rounded=1;sketch=0;curved=0;" edge="1" parent="w6RZKW0HgrWe5gDU7XOU-113">
          <mxGeometry width="50" height="50" relative="1" as="geometry">
            <mxPoint as="sourcePoint" />
            <mxPoint x="100" as="targetPoint" />
          </mxGeometry>
        </mxCell>
        <mxCell id="w6RZKW0HgrWe5gDU7XOU-116" value="" style="endArrow=classic;html=1;rounded=1;dashed=1;sketch=0;curved=0;" edge="1" parent="w6RZKW0HgrWe5gDU7XOU-113">
          <mxGeometry width="50" height="50" relative="1" as="geometry">
            <mxPoint x="100" as="sourcePoint" />
            <mxPoint x="100" y="80" as="targetPoint" />
          </mxGeometry>
        </mxCell>
        <mxCell id="w6RZKW0HgrWe5gDU7XOU-117" value="" style="group" vertex="1" connectable="0" parent="1">
          <mxGeometry x="450" y="290" width="110" height="80" as="geometry" />
        </mxCell>
        <mxCell id="w6RZKW0HgrWe5gDU7XOU-118" value="" style="endArrow=none;html=1;rounded=1;sketch=0;curved=0;" edge="1" parent="w6RZKW0HgrWe5gDU7XOU-117">
          <mxGeometry width="50" height="50" relative="1" as="geometry">
            <mxPoint y="80" as="sourcePoint" />
            <mxPoint as="targetPoint" />
          </mxGeometry>
        </mxCell>
        <mxCell id="w6RZKW0HgrWe5gDU7XOU-119" value="" style="endArrow=none;html=1;rounded=1;sketch=0;curved=0;" edge="1" parent="w6RZKW0HgrWe5gDU7XOU-117">
          <mxGeometry width="50" height="50" relative="1" as="geometry">
            <mxPoint as="sourcePoint" />
            <mxPoint x="110" as="targetPoint" />
          </mxGeometry>
        </mxCell>
        <mxCell id="w6RZKW0HgrWe5gDU7XOU-120" value="" style="endArrow=classic;html=1;rounded=1;sketch=0;curved=0;" edge="1" parent="w6RZKW0HgrWe5gDU7XOU-117">
          <mxGeometry width="50" height="50" relative="1" as="geometry">
            <mxPoint x="110" as="sourcePoint" />
            <mxPoint x="110" y="80" as="targetPoint" />
          </mxGeometry>
        </mxCell>
      </root>
    </mxGraphModel>
  </diagram>
</mxfile>
